<svg width="411" height="75" viewBox="0 0 411 75" fill="none" xmlns="http://www.w3.org/2000/svg">
<g clip-path="url(#clip0_1347_282)">
<path d="M84.203 66.8126V35.1643L58.0714 49.3915L26.1327 31.9704L58.0714 14.5493L90.01 31.9704V66.8126H84.203ZM58.0714 66.8126H37.7468V41.2617L58.0714 52.295L78.396 41.2617V66.8126H58.0714Z" fill="#3D7A9C"/>
<path d="M58.2854 0V7.3124L22.8004 25.8718V29.695H15.2002V37.1188H22.8004V44.5426H15.2002V51.9663H22.8004V66.8139H-5.39853e-05V0H58.2854ZM15.2002 22.2713H22.8004V14.8475H15.2002V22.2713Z" fill="#E86646"/>
<path d="M123.135 67.1512C120.884 67.1512 118.802 66.7855 116.889 66.054C115.004 65.2945 113.359 64.2395 111.952 62.8892C110.574 61.5107 109.49 59.9072 108.703 58.0786C107.915 56.25 107.521 54.2385 107.521 52.0442C107.521 49.8499 107.915 47.8385 108.703 46.0099C109.49 44.1813 110.588 42.5918 111.994 41.2415C113.401 39.863 115.047 38.808 116.931 38.0766C118.844 37.317 120.926 36.9373 123.177 36.9373C125.455 36.9373 127.551 37.3311 129.464 38.1188C131.405 38.8784 133.051 40.0177 134.402 41.5369L131.659 44.1954C130.533 43.0138 129.267 42.1417 127.861 41.5791C126.454 40.9883 124.949 40.6929 123.346 40.6929C121.686 40.6929 120.139 40.9742 118.704 41.5369C117.297 42.0995 116.073 42.8872 115.033 43.9C113.992 44.9127 113.176 46.1224 112.585 47.529C112.022 48.9075 111.741 50.4126 111.741 52.0442C111.741 53.6759 112.022 55.195 112.585 56.6016C113.176 57.9801 113.992 59.1757 115.033 60.1885C116.073 61.2012 117.297 61.9889 118.704 62.5516C120.139 63.1142 121.686 63.3955 123.346 63.3955C124.949 63.3955 126.454 63.1142 127.861 62.5516C129.267 61.9608 130.533 61.0606 131.659 59.8509L134.402 62.5094C133.051 64.0285 131.405 65.1819 129.464 65.9696C127.551 66.7573 125.441 67.1512 123.135 67.1512Z" fill="#E86646"/>
<path d="M148.462 67.0668C146.211 67.0668 144.214 66.5745 142.47 65.5899C140.725 64.6052 139.347 63.2549 138.334 61.5388C137.321 59.7946 136.815 57.8254 136.815 55.6311C136.815 53.4086 137.321 51.4394 138.334 49.7233C139.347 48.0073 140.725 46.671 142.47 45.7145C144.214 44.7299 146.211 44.2375 148.462 44.2375C150.684 44.2375 152.668 44.7299 154.412 45.7145C156.184 46.671 157.563 48.0073 158.547 49.7233C159.56 51.4112 160.066 53.3805 160.066 55.6311C160.066 57.8535 159.56 59.8228 158.547 61.5388C157.563 63.2549 156.184 64.6052 154.412 65.5899C152.668 66.5745 150.684 67.0668 148.462 67.0668ZM148.462 63.5221C149.897 63.5221 151.177 63.1986 152.302 62.5516C153.455 61.9045 154.355 60.9902 155.002 59.8087C155.65 58.599 155.973 57.2065 155.973 55.6311C155.973 54.0275 155.65 52.6491 155.002 51.4956C154.355 50.3141 153.455 49.3998 152.302 48.7528C151.177 48.1057 149.897 47.7822 148.462 47.7822C147.027 47.7822 145.747 48.1057 144.622 48.7528C143.496 49.3998 142.596 50.3141 141.921 51.4956C141.246 52.6491 140.908 54.0275 140.908 55.6311C140.908 57.2065 141.246 58.599 141.921 59.8087C142.596 60.9902 143.496 61.9045 144.622 62.5516C145.747 63.1986 147.027 63.5221 148.462 63.5221Z" fill="#E86646"/>
<path d="M164.646 56.9814V53.479H175.997V56.9814H164.646Z" fill="#E86646"/>
<path d="M192.226 67.0668C189.975 67.0668 187.978 66.5745 186.234 65.5899C184.49 64.6052 183.111 63.2549 182.098 61.5388C181.086 59.7946 180.579 57.8254 180.579 55.6311C180.579 53.4086 181.086 51.4394 182.098 49.7233C183.111 48.0073 184.49 46.671 186.234 45.7145C187.978 44.7299 189.975 44.2375 192.226 44.2375C194.448 44.2375 196.432 44.7299 198.176 45.7145C199.948 46.671 201.327 48.0073 202.311 49.7233C203.324 51.4112 203.83 53.3805 203.83 55.6311C203.83 57.8535 203.324 59.8228 202.311 61.5388C201.327 63.2549 199.948 64.6052 198.176 65.5899C196.432 66.5745 194.448 67.0668 192.226 67.0668ZM192.226 63.5221C193.661 63.5221 194.941 63.1986 196.066 62.5516C197.219 61.9045 198.12 60.9902 198.767 59.8087C199.414 58.599 199.737 57.2065 199.737 55.6311C199.737 54.0275 199.414 52.6491 198.767 51.4956C198.12 50.3141 197.219 49.3998 196.066 48.7528C194.941 48.1057 193.661 47.7822 192.226 47.7822C190.791 47.7822 189.511 48.1057 188.386 48.7528C187.261 49.3998 186.36 50.3141 185.685 51.4956C185.01 52.6491 184.672 54.0275 184.672 55.6311C184.672 57.2065 185.01 58.599 185.685 59.8087C186.36 60.9902 187.261 61.9045 188.386 62.5516C189.511 63.1986 190.791 63.5221 192.226 63.5221Z" fill="#E86646"/>
<path d="M221.291 67.0668C219.434 67.0668 217.732 66.6448 216.185 65.8008C214.666 64.9288 213.442 63.6487 212.513 61.9608C211.613 60.2729 211.163 58.163 211.163 55.6311C211.163 53.0992 211.599 50.9893 212.471 49.3013C213.371 47.6134 214.581 46.3475 216.1 45.5035C217.648 44.6595 219.378 44.2375 221.291 44.2375C223.485 44.2375 225.426 44.7158 227.114 45.6723C228.802 46.6288 230.138 47.9651 231.123 49.6811C232.107 51.3691 232.6 53.3524 232.6 55.6311C232.6 57.9098 232.107 59.9072 231.123 61.6232C230.138 63.3393 228.802 64.6756 227.114 65.6321C225.426 66.5885 223.485 67.0668 221.291 67.0668ZM209.433 75.0001V44.4485H213.315V50.4829L213.062 55.6733L213.484 60.8637V75.0001H209.433ZM220.953 63.5221C222.388 63.5221 223.668 63.1986 224.793 62.5516C225.947 61.9045 226.847 60.9902 227.494 59.8087C228.169 58.599 228.507 57.2065 228.507 55.6311C228.507 54.0275 228.169 52.6491 227.494 51.4956C226.847 50.3141 225.947 49.3998 224.793 48.7528C223.668 48.1057 222.388 47.7822 220.953 47.7822C219.546 47.7822 218.266 48.1057 217.113 48.7528C215.988 49.3998 215.087 50.3141 214.412 51.4956C213.765 52.6491 213.442 54.0275 213.442 55.6311C213.442 57.2065 213.765 58.599 214.412 59.8087C215.087 60.9902 215.988 61.9045 217.113 62.5516C218.266 63.1986 219.546 63.5221 220.953 63.5221Z" fill="#E86646"/>
<path d="M249.305 67.0672C247.026 67.0672 244.986 66.5749 243.186 65.5903C241.414 64.6056 240.021 63.2553 239.008 61.5392C237.996 59.8232 237.489 57.8539 237.489 55.6315C237.489 53.409 237.996 51.4398 239.008 49.7237C240.021 48.0077 241.414 46.6714 243.186 45.7149C244.986 44.7303 247.026 44.238 249.305 44.238C251.33 44.238 253.131 44.6459 254.706 45.4617C256.31 46.2494 257.547 47.431 258.419 49.0064L255.339 50.9897C254.608 49.8925 253.707 49.0908 252.638 48.5844C251.597 48.0499 250.472 47.7826 249.262 47.7826C247.8 47.7826 246.491 48.1061 245.338 48.7532C244.185 49.4002 243.27 50.3145 242.595 51.4961C241.92 52.6495 241.582 54.0279 241.582 55.6315C241.582 57.235 241.92 58.6276 242.595 59.8091C243.27 60.9907 244.185 61.905 245.338 62.552C246.491 63.199 247.8 63.5226 249.262 63.5226C250.472 63.5226 251.597 63.2694 252.638 62.763C253.707 62.2285 254.608 61.4126 255.339 60.3155L258.419 62.2566C257.547 63.8039 256.31 64.9995 254.706 65.8435C253.131 66.6593 251.33 67.0672 249.305 67.0672Z" fill="#3D7A9C"/>
<path d="M272.914 67.0672C270.663 67.0672 268.666 66.5749 266.921 65.5903C265.177 64.6056 263.799 63.2553 262.786 61.5392C261.773 59.795 261.267 57.8258 261.267 55.6315C261.267 53.409 261.773 51.4398 262.786 49.7237C263.799 48.0077 265.177 46.6714 266.921 45.7149C268.666 44.7303 270.663 44.238 272.914 44.238C275.136 44.238 277.119 44.7303 278.864 45.7149C280.636 46.6714 282.014 48.0077 282.999 49.7237C284.012 51.4117 284.518 53.3809 284.518 55.6315C284.518 57.8539 284.012 59.8232 282.999 61.5392C282.014 63.2553 280.636 64.6056 278.864 65.5903C277.119 66.5749 275.136 67.0672 272.914 67.0672ZM272.914 63.5226C274.348 63.5226 275.628 63.199 276.754 62.552C277.907 61.905 278.807 60.9907 279.454 59.8091C280.101 58.5994 280.425 57.2069 280.425 55.6315C280.425 54.0279 280.101 52.6495 279.454 51.4961C278.807 50.3145 277.907 49.4002 276.754 48.7532C275.628 48.1061 274.348 47.7826 272.914 47.7826C271.479 47.7826 270.199 48.1061 269.074 48.7532C267.948 49.4002 267.048 50.3145 266.373 51.4961C265.698 52.6495 265.36 54.0279 265.36 55.6315C265.36 57.2069 265.698 58.5994 266.373 59.8091C267.048 60.9907 267.948 61.905 269.074 62.552C270.199 63.199 271.479 63.5226 272.914 63.5226Z" fill="#3D7A9C"/>
<path d="M302.063 44.238C303.891 44.238 305.495 44.5896 306.873 45.2929C308.28 45.9962 309.377 47.0652 310.165 48.5C310.952 49.9347 311.346 51.7492 311.346 53.9436V66.814H307.295V54.4077C307.295 52.2416 306.761 50.6099 305.692 49.5127C304.651 48.4156 303.174 47.867 301.261 47.867C299.826 47.867 298.574 48.1483 297.505 48.711C296.436 49.2736 295.606 50.1035 295.016 51.2007C294.453 52.2978 294.172 53.6622 294.172 55.2939V66.814H290.121V44.4489H294.003V50.4833L293.37 48.8798C294.101 47.4169 295.227 46.2775 296.746 45.4617C298.265 44.6459 300.037 44.238 302.063 44.238Z" fill="#3D7A9C"/>
<path d="M330.785 44.238C332.614 44.238 334.218 44.5896 335.596 45.2929C337.003 45.9962 338.1 47.0652 338.888 48.5C339.675 49.9347 340.069 51.7492 340.069 53.9436V66.814H336.018V54.4077C336.018 52.2416 335.484 50.6099 334.415 49.5127C333.374 48.4156 331.897 47.867 329.984 47.867C328.549 47.867 327.297 48.1483 326.228 48.711C325.159 49.2736 324.329 50.1035 323.738 51.2007C323.176 52.2978 322.894 53.6622 322.894 55.2939V66.814H318.843V44.4489H322.726V50.4833L322.093 48.8798C322.824 47.4169 323.949 46.2775 325.468 45.4617C326.988 44.6459 328.76 44.238 330.785 44.238Z" fill="#3D7A9C"/>
<path d="M357.525 67.0672C355.134 67.0672 353.024 66.5749 351.195 65.5903C349.395 64.6056 347.988 63.2553 346.975 61.5392C345.991 59.8232 345.498 57.8539 345.498 55.6315C345.498 53.409 345.977 51.4398 346.933 49.7237C347.918 48.0077 349.254 46.6714 350.942 45.7149C352.658 44.7303 354.585 44.238 356.723 44.238C358.889 44.238 360.802 44.7162 362.462 45.6727C364.122 46.6292 365.416 47.9795 366.344 49.7237C367.301 51.4398 367.779 53.4512 367.779 55.7581C367.779 55.9269 367.765 56.1238 367.737 56.3489C367.737 56.5739 367.723 56.7849 367.695 56.9818H348.663V54.0701H365.585L363.939 55.0829C363.967 53.6482 363.672 52.3682 363.053 51.2429C362.434 50.1176 361.576 49.2455 360.479 48.6266C359.41 47.9795 358.158 47.656 356.723 47.656C355.317 47.656 354.065 47.9795 352.968 48.6266C351.87 49.2455 351.012 50.1316 350.393 51.2851C349.775 52.4104 349.465 53.7044 349.465 55.1673V55.8425C349.465 57.3335 349.803 58.6698 350.478 59.8513C351.181 61.0047 352.152 61.905 353.39 62.552C354.627 63.199 356.048 63.5226 357.652 63.5226C358.974 63.5226 360.169 63.2975 361.238 62.8474C362.336 62.3973 363.292 61.7221 364.108 60.8219L366.344 63.4382C365.332 64.6197 364.066 65.5199 362.547 66.1388C361.056 66.7577 359.382 67.0672 357.525 67.0672Z" fill="#3D7A9C"/>
<path d="M383.152 67.0672C380.873 67.0672 378.834 66.5749 377.033 65.5903C375.261 64.6056 373.869 63.2553 372.856 61.5392C371.843 59.8232 371.337 57.8539 371.337 55.6315C371.337 53.409 371.843 51.4398 372.856 49.7237C373.869 48.0077 375.261 46.6714 377.033 45.7149C378.834 44.7303 380.873 44.238 383.152 44.238C385.178 44.238 386.978 44.6459 388.554 45.4617C390.157 46.2494 391.395 47.431 392.267 49.0064L389.187 50.9897C388.455 49.8925 387.555 49.0908 386.486 48.5844C385.445 48.0499 384.32 47.7826 383.11 47.7826C381.647 47.7826 380.339 48.1061 379.186 48.7532C378.032 49.4002 377.118 50.3145 376.443 51.4961C375.767 52.6495 375.43 54.0279 375.43 55.6315C375.43 57.235 375.767 58.6276 376.443 59.8091C377.118 60.9907 378.032 61.905 379.186 62.552C380.339 63.199 381.647 63.5226 383.11 63.5226C384.32 63.5226 385.445 63.2694 386.486 62.763C387.555 62.2285 388.455 61.4126 389.187 60.3155L392.267 62.2566C391.395 63.8039 390.157 64.9995 388.554 65.8435C386.978 66.6593 385.178 67.0672 383.152 67.0672Z" fill="#3D7A9C"/>
<path d="M405.48 67.0672C403.23 67.0672 401.486 66.4624 400.248 65.2527C399.01 64.043 398.391 62.3129 398.391 60.0623V39.554H402.442V59.8935C402.442 61.1032 402.737 62.0315 403.328 62.6786C403.947 63.3256 404.819 63.6491 405.944 63.6491C407.21 63.6491 408.265 63.2975 409.109 62.5942L410.375 65.5059C409.756 66.0404 409.011 66.4342 408.139 66.6874C407.295 66.9406 406.409 67.0672 405.48 67.0672ZM394.593 47.7826V44.4489H408.856V47.7826H394.593Z" fill="#3D7A9C"/>
</g>
<defs>
<clipPath id="clip0_1347_282">
<rect width="410.375" height="75" fill="white"/>
</clipPath>
</defs>
</svg>
